<svg version="1.1" id="Layer_1" xmlns="http://www.w3.org/2000/svg" xmlns:xlink="http://www.w3.org/1999/xlink" x="0px" y="0px"
	 width="100%" viewBox="270 279 716 740" enable-background="new 270 279 716 740" xml:space="preserve">

<path fill="#D7D9F6" opacity="1.000000" stroke="none" 
	d="
M920.207153,707.666992 
	C922.033020,706.872314 923.858765,706.077515 926.064880,705.117188 
	C926.242249,706.284241 926.542847,707.341492 926.543640,708.398987 
	C926.582764,758.044128 926.590576,807.689270 926.618103,857.334412 
	C926.621582,863.648315 923.745544,867.846497 918.094971,870.783447 
	C873.032410,894.204956 828.040955,917.763367 782.452759,941.590271 
	C777.586670,944.221130 773.295593,946.541443 768.646362,948.917603 
	C765.349731,950.606384 762.411194,952.239319 759.141235,953.907715 
	C755.208435,955.911926 751.607056,957.880615 747.647644,959.907471 
	C744.357483,961.601135 741.425354,963.236694 738.157715,964.906189 
	C731.546509,968.299072 725.270752,971.658020 718.645874,975.063110 
	C716.019958,976.362793 713.743347,977.616394 711.141968,978.906372 
	C708.524048,980.239746 706.230835,981.536621 703.579956,982.889648 
	C691.033386,989.311646 678.844482,995.677368 666.337891,1002.099976 
	C665.680054,1002.412354 665.339783,1002.667786 664.646973,1002.972656 
	C656.472290,1007.133728 648.650269,1011.245178 640.462585,1015.456543 
	C636.907410,1016.649536 633.717834,1017.742554 630.322021,1018.497925 
	C630.062988,1015.998962 629.963928,1013.837708 629.963928,1011.676392 
	C629.964539,922.735901 629.981689,833.795471 629.948792,744.854980 
	C629.947693,741.892212 629.023804,738.891968 629.280151,735.975037 
	C629.756470,730.554626 630.786743,725.182861 631.736694,719.830200 
	C631.999207,720.054077 632.156982,720.182739 632.485229,720.599854 
	C645.479065,743.384338 658.347900,765.824341 671.313110,788.625854 
	C678.194946,800.927063 684.980347,812.866760 691.795898,824.859436 
	C693.108337,824.196960 693.841431,823.831177 694.570801,823.458191 
	C744.167664,798.087646 793.782410,772.751953 843.352173,747.328613 
	C864.361816,736.553223 885.277100,725.593628 906.599487,714.615967 
	C910.055542,712.890747 913.147278,711.267395 916.554016,709.575684 
	C917.981750,708.893799 919.094482,708.280396 920.207153,707.666992 
z"/>
<path fill="#D7D9F6" opacity="1.000000" stroke="none" 
	d="
M986.016113,653.049683 
	C983.742310,654.145020 981.468506,655.240417 978.628296,656.644348 
	C975.650146,658.272034 973.238403,659.591125 970.826599,660.910278 
	C969.442810,661.580872 968.059021,662.251465 966.002075,663.102051 
	C962.540833,664.817322 959.752808,666.352539 956.964722,667.887695 
	C956.389099,668.078003 955.813416,668.268372 954.689331,668.731567 
	C951.092773,670.645020 948.044739,672.285583 944.671509,673.966064 
	C942.841370,674.823792 941.336426,675.641602 939.581909,676.526978 
	C939.220215,676.725464 939.108032,676.856323 938.995850,676.987183 
	C929.827209,681.514954 920.658630,686.042725 910.892151,690.861206 
	C839.865662,726.996277 769.436951,762.840637 698.808533,798.786682 
	C695.016785,792.371155 691.477905,786.383362 687.859924,780.048340 
	C685.655334,775.932068 683.554504,772.148865 681.400208,768.396423 
	C670.389038,749.216492 659.364197,730.044495 648.243408,710.527588 
	C646.282349,707.054138 644.422058,703.922852 642.445068,700.446045 
	C640.853821,697.400696 639.379333,694.700745 638.138184,691.743042 
	C654.562744,683.420349 670.781616,675.410217 686.938416,667.276855 
	C707.980652,656.684204 728.973572,645.993652 750.348816,635.259155 
	C763.729248,628.575195 776.748474,621.977295 790.087402,615.307739 
	C793.613586,613.523865 796.820190,611.811584 800.385132,610.044983 
	C809.550354,605.454285 818.326172,600.856262 827.169922,596.392944 
	C856.743469,581.467285 886.348022,566.602844 915.915466,551.665161 
	C917.931763,550.646545 919.905090,549.408936 921.615295,547.943054 
	C927.067017,543.270264 934.837769,544.803772 937.937073,551.179565 
	C941.417786,558.339905 945.049133,565.427063 948.681152,572.984131 
	C960.141907,597.204346 971.558838,620.975891 982.899475,644.783752 
	C984.161316,647.432861 984.987732,650.289368 986.016113,653.049683 
z"/>

<path fill="#FCFCFD" opacity="1.000000" stroke="none" 
	d="
M649.538330,279.115967 
	C650.587646,279.084015 651.175598,279.142303 652.048950,279.112305 
	C654.588684,279.071594 656.843079,279.119202 659.521179,279.100769 
	C678.989197,279.080139 698.033508,279.125549 718.000244,279.169495 
	C726.545288,279.384521 734.167908,279.601044 742.053711,279.983368 
	C743.476318,280.641510 744.635620,281.133820 745.977051,281.850372 
	C746.654175,282.361084 747.149292,282.647552 747.779663,283.204529 
	C749.316895,285.649872 750.718872,287.824677 752.120850,289.999481 
	C752.066589,294.403961 753.091431,299.208710 751.648682,303.098206 
	C750.258362,306.846588 746.319275,309.649597 743.238403,313.130371 
	C742.976807,313.392822 742.953247,313.419159 742.604736,313.506714 
	C737.212891,314.009064 732.145569,314.961578 727.130737,314.737915 
	C711.995850,314.062897 697.804932,322.475281 692.032410,336.411530 
	C685.853210,351.329468 684.990906,367.115417 684.863586,383.455109 
	C684.806763,390.274017 684.875732,396.638855 684.944763,403.003723 
	C684.912292,421.913849 684.867554,440.823944 684.852112,459.734070 
	C684.843018,470.852966 684.880493,481.971893 684.900452,494.009705 
	C684.936890,505.284088 684.969910,515.639526 684.871704,526.376892 
	C684.824463,533.174866 684.908508,539.591003 684.910522,546.466919 
	C685.007080,551.612244 685.185669,556.297791 685.364197,560.983276 
	C685.368835,562.149841 685.373413,563.316345 685.473511,565.233704 
	C686.447754,571.536804 686.810669,577.233398 688.315002,582.610718 
	C691.243347,593.078003 698.419189,599.112915 709.351074,600.175781 
	C714.287720,600.655762 719.282532,600.989319 724.229309,600.805908 
	C731.424011,600.539124 736.355408,603.342773 738.959961,610.484009 
	C739.024536,613.922424 739.110474,616.958496 738.972717,620.265564 
	C736.063293,626.921204 731.039612,629.096741 724.389343,629.054993 
	C707.595337,628.949646 690.799866,629.084900 673.544495,629.028564 
	C666.721313,628.989258 660.358643,629.045044 653.586670,629.009033 
	C651.786499,628.977295 650.395569,629.037231 648.544067,629.000977 
	C615.796326,629.025269 583.509094,629.145813 550.812500,629.165955 
	C548.570801,629.049683 546.704224,628.797546 544.912170,629.058167 
	C536.434448,630.291321 529.278259,626.906433 522.382202,622.707947 
	C521.037964,621.889404 519.329346,620.562927 519.079224,619.228821 
	C517.072449,608.524902 522.348938,600.901306 531.702393,600.842834 
	C538.014771,600.803467 544.380981,600.677979 550.621033,599.835083 
	C559.568176,598.626404 566.276550,593.711548 568.873352,584.903625 
	C570.833862,578.253723 572.586975,571.250244 572.661438,564.384888 
	C573.101990,523.756165 573.025269,483.121796 573.117615,442.489319 
	C573.117981,442.327026 573.047607,442.164612 573.118408,441.634155 
	C573.153076,440.509918 573.079712,439.753723 573.109863,438.553253 
	C573.147217,435.073608 573.080994,432.038269 573.125610,428.546936 
	C573.202759,423.060974 573.169067,418.031006 573.249878,412.547729 
	C573.174622,397.818176 573.484375,383.511292 572.611938,369.276886 
	C572.069580,360.428925 569.736816,351.690735 568.212036,342.527740 
	C566.904907,339.236023 565.593445,336.319794 564.206604,333.083130 
	C561.475342,329.653625 558.819519,326.544556 556.163635,323.435455 
	C547.712036,315.618378 537.065247,314.749542 526.390381,314.180939 
	C507.538391,313.176697 502.277252,305.917328 507.167023,287.375214 
	C508.621918,281.858124 513.202271,279.242828 521.842346,279.232117 
	C545.293152,279.203064 568.744141,279.247009 592.195007,279.245819 
	C611.155701,279.244843 630.116333,279.220276 649.538330,279.115967 
z"/>
<path fill="#FDFDFE" opacity="1.000000" stroke="none" 
	d="
M334.404358,684.916138 
	C333.572052,684.546204 332.097931,684.231384 332.081787,683.630981 
	C329.676331,682.723267 327.746094,682.250122 325.962372,681.450195 
	C321.283386,679.351746 316.668304,677.110840 312.027771,674.926697 
	C310.913635,674.274353 309.799469,673.621948 308.357758,672.938232 
	C297.618774,667.613770 287.207336,662.320618 276.228149,656.732910 
	C273.790405,655.292419 271.920471,654.146606 270.050537,653.000732 
	C270.752380,651.326904 271.454254,649.653076 272.482147,647.534973 
	C273.726196,645.437744 274.644226,643.784851 275.562286,642.131897 
	C275.562286,642.131897 275.604462,641.977722 275.872803,641.656616 
	C276.428467,640.224487 276.715820,639.113525 277.003174,638.002502 
	C278.702209,634.926758 280.401306,631.851013 282.446686,628.201660 
	C283.982391,624.797546 285.171814,621.967102 286.361206,619.136658 
	C286.930603,618.300659 287.500000,617.464661 288.322418,616.152893 
	C288.600586,615.511353 288.625732,615.345581 288.650879,615.179871 
	C289.045593,614.440613 289.440338,613.701294 290.112427,612.432007 
	C291.584930,608.936890 292.780060,605.971741 293.975159,603.006653 
	C295.295776,600.653687 296.616394,598.300720 298.306091,595.386230 
	C			299.347961,593.321899 300.020782,591.819092 300.693604,590.316345 
	C301.722931,588.187683 302.752289,586.058960 303.503815,583.602905 
	C303.226013,583.275513 303.323303,583.279541 303.323303,583.279541 
	C305.902863,578.516418 308.482422,573.753296 311.102417,568.647583 
	C313.883423,562.839783 316.680603,557.401978 319.350525,551.902405 
	C322.859680,544.674255 325.774017,543.644226 333.130798,547.220825 
	C334.471863,547.872864 335.801941,548.547485 337.697754,549.587158 
	C343.834656,552.656982 349.410950,555.351257 355.209839,558.304321 
	C363.995026,562.917542 372.539795,567.307373 381.123962,571.618835 
	C397.377991,579.782593 413.654633,587.901306 430.147491,596.307251 
	C444.241943,603.599060 458.070404,610.703613 471.988953,617.627014 
	C493.272400,628.213989 514.618042,638.675964 536.152771,649.455811 
	C558.445740,660.757263 580.523193,671.794006 602.846191,683.040283 
	C607.397705,685.301331 611.703796,687.352844 616.216309,689.639648 
	C617.622620,690.916748 618.822449,691.958679 619.795288,693.255371 
	C618.078064,696.339172 616.587891,699.168335 614.962158,702.316528 
	C613.852173,704.075989 612.877869,705.516296 611.632629,707.154053 
	C609.867981,710.144531 608.374207,712.937622 606.604004,715.944763 
	C590.752869,743.527649 575.178162,770.896484 559.525513,798.402100 
	C549.850952,793.739014 540.613220,789.286560 531.142700,784.560913 
	C521.121033,779.315918 511.351868,774.304749 501.539001,769.380676 
	C482.510986,759.832458 463.458374,750.333252 444.177002,740.553528 
	C423.931915,730.113220 403.942444,719.900208 383.912628,709.766907 
	C373.989685,704.746826 363.992493,699.873657 354.028900,694.934021 
	C347.606781,691.613098 341.184662,688.292114 334.404358,684.916138 
z"/>

<path fill="#FAFAFC" opacity="1.000000" stroke="none" 
	d="
M407.035339,508.092133 
	C407.206940,508.097168 407.378571,508.102173 408.055786,508.005371 
	C409.058777,507.650940 409.556152,507.398376 410.053528,507.145813 
	C425.080505,502.277588 440.086884,497.344482 455.141357,492.562775 
	C466.172791,489.058868 477.274353,485.776215 488.327393,482.339478 
	C490.340393,481.713562 492.270172,480.819946 494.917236,480.083191 
	C496.109558,479.850403 496.623077,479.584259 497.136566,479.318115 
	C498.004608,479.174011 498.872681,479.029907 500.321716,478.574738 
	C517.687195,473.106537 534.471741,467.949402 552.048828,462.548737 
	C552.048828,467.389496 552.048828,471.195831 551.954346,475.440857 
	C551.929626,479.079041 551.999451,482.278503 551.995972,485.855530 
	C551.949829,490.489532 551.976868,494.745972 551.890503,499.271912 
	C551.518066,500.027130 551.259033,500.512909 550.605103,500.915466 
	C543.983398,502.764801 537.741394,504.650177 531.533020,506.640320 
	C520.509705,510.173798 509.494507,513.733765 498.497406,517.348083 
	C465.318542,528.252686 432.095581,539.028076 399.019836,550.237610 
	C391.711090,552.714539 384.967926,554.903931 377.875549,549.515015 
	C371.083038,545.929871 364.499939,542.604126 357.684753,539.069702 
	C356.006317,538.466797 354.559967,538.072571 352.931030,537.402954 
	C351.166046,536.151306 349.583618,535.175049 348.001221,534.198792 
	C345.591827,532.889465 343.182465,531.580200 339.927551,529.811462 
	C349.270599,526.821411 357.821289,524.084900 367.009766,521.151855 
	C368.215881,520.683289 368.784241,520.411316 369.352570,520.139343 
	C369.979797,520.039001 370.607056,519.938660 371.492065,519.642212 
	C379.601807,517.005737 387.453735,514.565369 395.989807,511.832916 
	C398.825317,510.806427 400.976685,510.071960 403.128082,509.337524 
	C403.557159,509.262573 403.986237,509.187622 404.981659,508.977142 
	C406.043793,508.591766 406.539551,508.341949 407.035339,508.092133 
z"/>
<path fill="#FAFAFC" opacity="1.000000" stroke="none" 
	d="
M824.999268,540.031494 
	C822.968689,539.020752 820.938110,538.010071 818.255371,536.793579 
	C801.401367,531.356689 785.199402,526.125488 768.997498,520.894287 
	C749.601624,514.452820 730.239990,507.904205 710.777588,501.670471 
	C707.345581,500.571167 706.080078,499.233398 706.172974,495.543427 
	C706.443604,484.791656 706.268982,474.028687 706.268982,462.508759 
	C721.859070,467.356201 736.702759,471.971558 752.208008,476.792480 
	C755.244385,477.676117 757.619263,478.354187 760.285950,479.251312 
	C763.386902,480.263763 766.195923,481.057159 769.005005,481.850586 
	C769.155823,481.935516 769.306580,482.020416 770.002563,482.309631 
	C777.364136,484.661652 784.180481,486.809357 790.996887,488.957062 
	C795.999512,490.316742 801.002136,491.676422 806.413696,493.053619 
	C808.431519,494.034668 809.931030,495.334656 811.669373,495.900146 
	C817.458740,497.783356 823.333984,499.402985 829.841064,501.354553 
	C834.922485,502.998169 839.336121,504.419922 843.756042,505.821960 
	C861.836121,511.557068 879.918152,517.286072 897.999451,523.017395 
	C900.057190,523.755066 902.114990,524.492676 904.827454,525.448608 
	C909.614685,526.974609 913.747192,528.282410 918.598755,529.817749 
	C915.058716,531.768921 912.471558,533.194885 909.884338,534.620911 
	C898.562378,540.213074 887.123535,545.585815 875.983459,551.519531 
	C872.217773,553.525391 869.007996,553.762878 865.231079,552.304504 
	C861.824951,550.989258 858.295654,549.992859 854.159790,548.628540 
	C847.985413,546.566956 842.509338,544.608093 836.945801,542.940918 
	C833.025024,541.765991 828.985657,540.987183 824.999268,540.031494 
z"/>
<path fill="#FDFDFE" opacity="1.000000" stroke="none" 
	d="
M616.854980,1014.768188 
	C595.965210,1004.083069 575.402405,993.437805 554.484741,982.727295 
	C553.773743,982.384216 553.417664,982.106445 552.587219,981.557373 
	C550.792358,980.670410 549.471802,980.054749 548.151306,979.439087 
	C546.668152,978.598816 545.184937,977.758545 543.158875,976.618652 
	C539.815674,974.975281 537.015442,973.631592 534.215210,972.287903 
	C533.009888,971.589966 531.804626,970.891968 530.061279,969.936523 
	C528.164062,969.040466 526.804932,968.401794 525.445740,967.763184 
	C524.000000,967.460266 524.554199,967.157288 523.638550,966.616638 
	C522.781982,966.258423 522.395325,966.137878 522.008667,966.017334 
	C522.008667,966.017334 521.858521,965.790710 521.488831,965.533447 
	C519.144714,964.320007 517.170227,963.363892 514.966064,962.187012 
	C513.178955,961.261658 511.621582,960.556946 510.064178,959.852234 
	C507.665405,958.821228 505.266602,957.790161 502.508667,956.662842 
	C492.348358,951.129761 482.547211,945.692932 472.352081,940.180420 
	C470.686676,939.363220 469.415283,938.621704 467.600891,937.596069 
	C462.039978,934.881653 457.022034,932.451355 452.004089,930.020996 
	C449.719940,928.654968 447.435791,927.288940 444.587585,925.596130 
	C438.679199,922.554504 433.334808,919.839661 427.990448,917.124756 
	C426.223663,916.104309 424.456879,915.083801 422.145447,913.743652 
	C416.401123,910.955933 411.201447,908.487854 406.001801,906.019714 
	C402.559570,904.057007 399.117340,902.094238 395.126007,899.813354 
	C392.048584,898.361511 389.520264,897.227844 386.991943,896.094177 
	C386.628418,896.022156 386.264923,895.950134 385.500519,895.605591 
	C384.733490,895.241821 384.367371,895.150513 384.001221,895.059204 
	C384.001221,895.059204 383.706421,894.853882 383.402466,894.589783 
	C382.727570,894.229187 382.356659,894.132751 381.985748,894.036255 
	C381.985748,894.036255 381.974152,893.992004 381.757660,893.786743 
	C381.025085,893.098999 380.509003,892.616455 379.992859,892.134033 
	C379.242889,891.690796 378.492920,891.247620 377.199829,890.491760 
	C373.101990,888.491028 369.547272,886.803040 365.992554,885.115051 
	C363.235016,883.608643 360.477448,882.102295 357.352844,880.496704 
	C350.970734,877.394653 344.751373,874.728394 339.023621,871.252136 
	C336.002625,869.418701 333.839203,866.172302 331.098022,862.809692 
	C330.714264,857.710449 330.521027,853.365356 330.327820,849.020325 
	C330.421692,843.639038 330.515564,838.257812 330.596924,831.977600 
	C330.500336,810.731628 330.416290,790.384644 330.332245,770.037598 
	C330.429840,764.978271 330.527435,759.919006 330.604248,753.960754 
	C330.472717,740.726746 330.362000,728.391663 330.400024,715.635620 
	C330.582245,712.554260 330.463104,709.876709 330.759491,707.246033 
	C330.830963,706.611694 332.277863,706.132263 333.092224,705.581665 
	C333.652679,705.817139 334.213135,706.052673 335.196899,706.648071 
	C336.142151,707.174805 336.664154,707.341614 337.186157,707.508423 
	C337.186157,707.508423 337.344025,707.400391 337.439453,707.664368 
	C337.986908,708.112244 338.438995,708.296143 338.891083,708.480103 
	C339.250488,708.722839 339.609894,708.965698 340.429382,709.459106 
	C345.592590,712.076172 350.295715,714.442566 354.998779,716.809082 
	C355.763367,717.236389 356.527954,717.663696 357.830627,718.375061 
	C375.087830,727.254761 391.787537,735.888672 408.533569,744.431702 
	C418.301819,749.415039 428.144135,754.253113 438.162720,759.420776 
	C459.223389,770.189026 480.074524,780.693115 501.148651,791.454224 
	C503.888824,792.894592 506.406006,794.077942 509.122498,795.511841 
	C510.884033,796.449829 512.446228,797.137207 514.266724,798.070862 
	C531.706299,807.010132 548.887573,815.703247 566.425720,824.576904 
	C567.779907,822.292603 568.979553,820.332275 570.118591,818.337463 
	C578.123657,804.318237 586.142273,790.306702 594.105835,776.264038 
	C602.797424,760.937561 611.434448,745.580200 620.385498,730.047852 
	C621.190063,728.602722 621.704285,727.346130 622.527710,725.949036 
	C623.693054,724.251221 624.549133,722.693787 625.629028,720.951538 
	C626.060608,720.227417 626.268372,719.688110 626.711182,718.897949 
	C627.641174,717.676453 628.336121,716.705688 629.126221,715.602051 
	C630.090759,717.244263 630.838562,718.517578 631.586426,719.790833 
	C630.786743,725.182861 629.756470,730.554626 629.280151,735.975037 
	C629.023804,738.891968 629.947693,741.892212 629.948792,744.854980 
	C629.981689,833.795471 629.964539,922.735901 629.963928,1011.676392 
	C629.963928,1013.837708 630.062988,1015.998962 630.322021,1018.497925 
	C630.528320,1018.835632 630.687683,1019.050293 630.357666,1019.111572 
	C627.685059,1018.794312 625.342346,1018.415771 622.999695,1018.037292 
	C621.060425,1016.960876 619.121216,1015.884460 616.854980,1014.768188 
z"/>
</svg>
